<svg width="15" height="55" viewBox="0 0 15 55" fill="none" xmlns="http://www.w3.org/2000/svg">
<path d="M1.50301 26.7738C3.80762 27.0054 5.47094 27.6789 6.49299 28.7945C7.51503 29.9101 8.02605 31.6361 8.02605 33.9725V45.465C8.02605 48.3697 8.54709 50.443 9.58918 51.6849C10.6513 52.9267 12.2645 53.5477 14.4289 53.5477H15V55H14.3988C11.5932 55 9.57916 54.2633 8.35671 52.7899C7.15431 51.3376 6.55311 48.9064 6.55311 45.4966V35.0775C6.55311 32.4464 6.06212 30.6047 5.08016 29.5523C4.0982 28.4788 2.40481 27.942 0 27.942V25.1005C2.40481 25.1005 4.0982 24.5637 5.08016 23.4903C6.06212 22.4168 6.55311 20.5435 6.55311 17.8703V9.2193C6.55311 5.87258 7.14429 3.50461 8.32665 2.1154C9.52906 0.705143 11.5531 1.52588e-05 14.3988 1.52588e-05H15V1.4208H14.4289C12.1643 1.4208 10.5311 1.99963 9.52906 3.15731C8.52705 4.31498 8.02605 6.33564 8.02605 9.2193V18.9753C8.02605 21.3117 7.51503 23.0377 6.49299 24.1533C5.47094 25.2689 3.80762 25.9529 1.50301 26.2055V26.7738Z" fill="#0BCF6B"/>
</svg>
