<svg width="7" height="18" viewBox="0 0 7 18" fill="none" xmlns="http://www.w3.org/2000/svg">
<path d="M1.78711 9.57031C3.21289 9.71354 3.92578 10.4753 3.92578 11.8555V14.4238C3.92578 15.2051 4.07552 15.765 4.375 16.1035C4.67448 16.4486 5.16927 16.6211 5.85938 16.6211H6.25V17.998H5.71289C4.56055 17.998 3.70768 17.7214 3.1543 17.168C2.60091 16.6211 2.32422 15.778 2.32422 14.6387V12.4609C2.32422 11.6797 2.16797 11.1393 1.85547 10.8398C1.54297 10.5339 0.989583 10.3809 0.195312 10.3809V8.52539C0.989583 8.52539 1.54297 8.37565 1.85547 8.07617C2.16797 7.77018 2.32422 7.22656 2.32422 6.44531V4.26758C2.32422 3.12826 2.60091 2.28516 3.1543 1.73828C3.70768 1.1849 4.56055 0.908203 5.71289 0.908203H6.25V2.28516H5.85938C5.16927 2.28516 4.67448 2.45768 4.375 2.80273C4.07552 3.14128 3.92578 3.70117 3.92578 4.48242V7.05078C3.92578 8.43099 3.21289 9.19271 1.78711 9.33594V9.57031Z" fill="#0BCF6B"/>
</svg>
