<svg width="7" height="18" viewBox="0 0 7 18" fill="none" xmlns="http://www.w3.org/2000/svg">
<path d="M5.21289 9.57031C3.78711 9.71354 3.07422 10.4753 3.07422 11.8555V14.4238C3.07422 15.2051 2.92448 15.765 2.625 16.1035C2.32552 16.4486 1.83073 16.6211 1.14062 16.6211H0.75V17.998H1.28711C2.43945 17.998 3.29232 17.7214 3.8457 17.168C4.39909 16.6211 4.67578 15.778 4.67578 14.6387V12.4609C4.67578 11.6797 4.83203 11.1393 5.14453 10.8398C5.45703 10.5339 6.01042 10.3809 6.80469 10.3809V8.52539C6.01042 8.52539 5.45703 8.37565 5.14453 8.07617C4.83203 7.77018 4.67578 7.22656 4.67578 6.44531V4.26758C4.67578 3.12826 4.39909 2.28516 3.8457 1.73828C3.29232 1.1849 2.43945 0.908203 1.28711 0.908203H0.75V2.28516H1.14062C1.83073 2.28516 2.32552 2.45768 2.625 2.80273C2.92448 3.14128 3.07422 3.70117 3.07422 4.48242V7.05078C3.07422 8.43099 3.78711 9.19271 5.21289 9.33594V9.57031Z" fill="#0BCF6B"/>
</svg>
